<svg xmlns="http://www.w3.org/2000/svg" width="1147.272" height="335.763" viewBox="0 0 1147.272 335.763">
  <g id="fleche" transform="translate(3348.911 -0.571)">
    <path id="Tracé_7" data-name="Tracé 7" d="M1089.571,140.576s-31.805-83.7-100.437-111.6S850-10.431,815.042,2.368C755.142,24.3,722.76,36.061,694.861,55.591s-50.217,34.7-58.374,37.771c-49.8,18.75,5.117,67.284-167.4,152.116-51.409,25.28-71.885,47.969-187.483,82.582-58.377,17.479-92.626-50.777-160.7-64.726S-54.96,263.7-54.96,263.7" transform="translate(-3292.5 4.5)" fill="none" stroke="#f2f2f2" stroke-linecap="round" stroke-width="2"/>
    <path id="Tracé_8" data-name="Tracé 8" d="M23,0,5.031,10.937,0,14" transform="translate(-3347.46 254.5)" fill="none" stroke="#f2f2f2" stroke-linecap="round" stroke-width="2"/>
    <line id="Ligne_6" data-name="Ligne 6" x2="17" y2="15" transform="translate(-3347.5 268.5)" fill="none" stroke="#f2f2f2" stroke-linecap="round" stroke-width="2"/>
  </g>
</svg>
